<svg xmlns="http://www.w3.org/2000/svg" viewBox="0 0 612 792"><defs><style>.mo-1{fill:#fff;}.mo-2{fill:#fcd219;}.mo-3{fill:#324b82;}.mo-4{fill:#cb2127;}.mo-5{fill:#2d2e2f;}.mo-6{fill:#d9c399;}</style></defs><title>meu-pequeno-mondrian3</title><g id="branco"><rect class="mo-1" width="612" height="792"/></g><g id="amarelo"><rect class="mo-2" x="292.43" y="65.57" width="133.91" height="44.35"/><rect class="mo-2" x="300.26" y="525.57" width="242.05" height="200.49"/></g><g id="azul"><rect class="mo-3" x="73.18" y="65.57" width="91.43" height="110.43"/><rect class="mo-3" x="426.35" y="269.91" width="117.39" height="129.57"/><rect class="mo-3" x="71.69" y="525.57" width="92.92" height="85.22"/></g><g id="vermelho"><rect class="mo-4" x="162.87" y="175.13" width="263.48" height="95.65"/></g><g id="preto"><rect class="mo-5" x="158.52" y="65.57" width="10.43" height="548.7"/><rect class="mo-5" x="422" y="65.57" width="10.43" height="465.85"/><rect class="mo-5" x="288.26" y="65.57" width="10.43" height="115.61"/><rect class="mo-5" x="294.78" y="520.6" width="10.43" height="205.45"/><rect class="mo-5" x="303.24" y="35.44" width="10.43" height="470.56" transform="translate(37.73 579.18) rotate(-90)"/><rect class="mo-5" x="301.78" y="290.51" width="10.43" height="470.63" transform="translate(-218.82 832.82) rotate(-90)"/><rect class="mo-5" x="180.63" y="495.97" width="10.43" height="228.31" transform="translate(-424.28 795.97) rotate(-90)"/><rect class="mo-5" x="480.29" y="339.98" width="10.43" height="116.58" transform="translate(87.24 883.78) rotate(-90)"/><rect class="mo-5" x="246.08" y="-2.16" width="10.43" height="356.24" transform="translate(75.34 427.26) rotate(-90)"/><rect class="mo-5" x="354.17" y="43.96" width="10.43" height="133.91" transform="translate(248.48 470.3) rotate(-90)"/></g><g id="ramo"><path class="mo-6" d="M67.36,60.22V726.31H549.09V60.22ZM537.28,716.87H79.17V69.66H537.28Z"/></g></svg>
