<svg xmlns="http://www.w3.org/2000/svg" viewBox="0 0 577.7 791.92"><defs><style>.mo-1{fill:#fff;}.mo-2{fill:#fcd219;}.mo-3{fill:#324b82;}.mo-4{fill:#cb2127;}.mo-5{fill:#2d2e2f;}</style></defs><title>meu-pequeno-mondrian3</title><g id="branco"><rect class="mo-1" x="10.76" y="12.46" width="561.78" height="773.26"/></g><g id="amarelo"><rect class="mo-2" x="268.79" width="159.29" height="52.75"/><rect class="mo-2" x="278.1" y="547.18" width="287.93" height="238.48"/></g><g id="azul"><rect class="mo-3" x="7.98" width="108.76" height="131.37"/><rect class="mo-3" x="428.08" y="243.08" width="139.64" height="154.12"/><rect class="mo-3" x="6.21" y="547.18" width="110.53" height="101.37"/></g><g id="vermelho"><rect class="mo-4" x="114.67" y="130.33" width="313.41" height="113.78"/></g><g id="preto"><rect class="mo-5" x="109.5" width="12.41" height="652.69"/><rect class="mo-5" x="422.91" width="12.41" height="554.14"/><rect class="mo-5" x="263.83" width="12.41" height="137.52"/><rect class="mo-5" x="271.58" y="541.28" width="12.41" height="244.39"/><rect class="mo-5" x="281.64" y="-35.83" width="12.41" height="559.75" transform="translate(43.81 531.9) rotate(-90)"/><rect class="mo-5" x="279.91" y="267.58" width="12.41" height="559.82" transform="translate(-261.37 833.6) rotate(-90)"/><rect class="mo-5" x="135.79" y="511.97" width="12.41" height="271.58" transform="translate(-505.77 789.76) rotate(-90)"/><rect class="mo-5" x="492.25" y="326.43" width="12.41" height="138.68" transform="translate(102.69 894.22) rotate(-90)"/><rect class="mo-5" x="213.65" y="-80.56" width="12.41" height="423.76" transform="translate(88.54 351.17) rotate(-90)"/><rect class="mo-5" x="342.23" y="-25.7" width="12.41" height="159.29" transform="translate(294.5 402.38) rotate(-90)"/><rect class="mo-5" x="281.36" y="-273.67" width="12.41" height="559.75" transform="translate(281.36 293.77) rotate(-90)"/><rect class="mo-5" x="279.91" y="505.84" width="12.41" height="559.75" transform="translate(-499.6 1071.83) rotate(-90)"/><rect class="mo-5" x="565.29" width="12.41" height="791.92"/><rect class="mo-5" width="12.41" height="791.92"/></g></svg>
