<svg xmlns="http://www.w3.org/2000/svg" viewBox="0 0 566.34 785.72"><defs><style>.mo-1{fill:#fff;}.mo-2{fill:#fcd219;}.mo-3{fill:#324b82;}.mo-4{fill:#cb2127;}.mo-5{fill:#2d2e2f;}</style></defs><title>meu-pequeno-mondrian4</title><g id="branco"><rect class="mo-1" x="4.56" y="12.46" width="561.78" height="773.26"/></g><g id="amarelo"><rect class="mo-2" x="258.59" width="159.29" height="52.75"/><rect class="mo-2" x="271.89" y="547.18" width="287.93" height="238.48"/></g><g id="azul"><rect class="mo-3" x="1.77" width="108.76" height="131.37"/><rect class="mo-3" x="421.88" y="243.08" width="139.64" height="154.12"/><rect class="mo-3" y="547.18" width="110.53" height="101.37"/></g><g id="vermelho"><rect class="mo-4" x="108.46" y="130.33" width="313.41" height="113.78"/></g><g id="preto"><rect class="mo-5" x="103.29" width="12.41" height="652.69"/><rect class="mo-5" x="416.71" width="12.41" height="554.14"/><rect class="mo-5" x="257.62" width="12.41" height="137.52"/><rect class="mo-5" x="265.38" y="541.28" width="12.41" height="244.39"/><rect class="mo-5" x="273.67" y="-35.83" width="12.41" height="559.75" transform="translate(37.6 523.92) rotate(-90)"/><rect class="mo-5" x="271.93" y="267.58" width="12.41" height="559.82" transform="translate(-267.58 825.63) rotate(-90)"/><rect class="mo-5" x="127.82" y="511.97" width="12.41" height="271.58" transform="translate(-511.97 781.79) rotate(-90)"/><rect class="mo-5" x="484.28" y="326.43" width="12.41" height="138.68" transform="translate(96.49 886.25) rotate(-90)"/><rect class="mo-5" x="205.67" y="-80.56" width="12.41" height="423.76" transform="translate(82.33 343.2) rotate(-90)"/><rect class="mo-5" x="330.25" y="-25.7" width="12.41" height="159.29" transform="translate(284.29 390.4) rotate(-90)"/></g></svg>
