<svg xmlns="http://www.w3.org/2000/svg" viewBox="0 0 481.74 666.09"><defs><style>.mo-1{fill:#fff;}.mo-2{fill:#fcd219;}.mo-3{fill:#324b82;}.mo-4{fill:#cb2127;}.mo-5{fill:#2d2e2f;}.mo-6{fill:#d9c399;}</style></defs><title>meu-pequeno-mondrian</title><g id="branco"><rect class="mo-1" x="12.04" y="10.56" width="458.26" height="645.22"/></g><g id="amarelo"><rect class="mo-2" x="225.08" y="8.82" width="133.91" height="40.87"/><rect class="mo-2" x="232.91" y="465.34" width="243.48" height="197.39"/></g><g id="azul"><rect class="mo-3" x="6.82" y="4.47" width="90.43" height="111.3"/><rect class="mo-3" x="358.99" y="209.69" width="117.39" height="129.57"/><rect class="mo-3" x="6.82" y="465.34" width="90.43" height="85.22"/></g><g id="vermelho"><rect class="mo-4" x="95.51" y="114.91" width="263.48" height="95.65"/></g><g id="preto"><rect class="mo-5" x="91.17" y="5.34" width="10.43" height="548.7"/><rect class="mo-5" x="354.64" y="5.34" width="10.43" height="465.85"/><rect class="mo-5" x="220.91" y="5.34" width="10.43" height="115.61"/><rect class="mo-5" x="227.43" y="460.38" width="10.43" height="205.45"/><rect class="mo-5" x="303.27" y="35.41" width="10.43" height="470.63" transform="translate(-29.59 518.99) rotate(-90)"/><rect class="mo-5" x="301.78" y="290.51" width="10.43" height="470.63" transform="translate(-286.18 772.6) rotate(-90)"/><rect class="mo-5" x="180.63" y="495.97" width="10.43" height="228.31" transform="translate(-491.63 735.74) rotate(-90)"/><rect class="mo-5" x="480.29" y="339.98" width="10.43" height="116.58" transform="translate(19.88 823.56) rotate(-90)"/><rect class="mo-5" x="246.08" y="-2.16" width="10.43" height="356.24" transform="translate(7.98 367.03) rotate(-90)"/><rect class="mo-5" x="354.17" y="43.96" width="10.43" height="133.91" transform="translate(181.12 410.08) rotate(-90)"/></g><g id="ramo"><path class="mo-6" d="M67.36,60.22V726.31H549.09V60.22ZM537.28,716.87H79.17V69.66H537.28Z" transform="translate(-67.36 -60.22)"/></g></svg>
